<svg xmlns="http://www.w3.org/2000/svg" xmlns:xlink="http://www.w3.org/1999/xlink" viewBox="0 0 29.91 23.36"><defs><clipPath id="a" transform="translate(0 0)"><rect width="29.91" height="23.36" fill="none"/></clipPath></defs><g clip-path="url(#a)"><path d="M14.75,19.18a1.59,1.59,0,1,1-1.59,1.59,1.59,1.59,0,0,1,1.59-1.59m0-1a2.59,2.59,0,1,0,2.59,2.59,2.59,2.59,0,0,0-2.59-2.59" transform="translate(0 0)" fill="currentColor"/><path d="M23,19.18a1.59,1.59,0,1,1-1.59,1.59A1.59,1.59,0,0,1,23,19.18m0-1a2.59,2.59,0,1,0,2.59,2.59A2.58,2.58,0,0,0,23,18.18" transform="translate(0 0)" fill="currentColor"/><polyline points="0.5 0.5 6.31 0.5 12.97 15.94 24.84 15.94 29.41 3.69" fill="none" stroke="currentColor" stroke-linecap="round" stroke-linejoin="round"/><path d="M29.41,4.19H14.77a.5.5,0,0,1-.5-.5.5.5,0,0,1,.5-.5H29.41a.5.5,0,0,1,.5.5.5.5,0,0,1-.5.5" transform="translate(0 0)" fill="currentColor"/></g></svg>