<svg xmlns="http://www.w3.org/2000/svg" xmlns:xlink="http://www.w3.org/1999/xlink" viewBox="0 0 29.91 23.36"><defs><clipPath id="a" transform="translate(0 0)"><rect width="29.91" height="23.36" fill="none"/></clipPath></defs><g clip-path="url(#a)"><path d="M14.75,19.18a1.59,1.59,0,1,1-1.59,1.59,1.59,1.59,0,0,1,1.59-1.59m0-1a2.59,2.59,0,1,0,2.59,2.59,2.59,2.59,0,0,0-2.59-2.59" transform="translate(0 0)" fill="currentColor"/><path d="M23,19.18a1.59,1.59,0,1,1-1.59,1.59A1.59,1.59,0,0,1,23,19.18m0-1a2.59,2.59,0,1,0,2.59,2.59A2.58,2.58,0,0,0,23,18.18" transform="translate(0 0)" fill="currentColor"/><path d="M29.91,3.69a.5.5,0,0,0-.5-.5H8L6.77.3A.51.51,0,0,0,6.31,0H.5A.5.5,0,0,0,0,.5.5.5,0,0,0,.5,1H6l6.53,15.14a.51.51,0,0,0,.46.3H24.84a.51.51,0,0,0,.47-.33L29.86,3.9a.54.54,0,0,0,.05-.21" transform="translate(0 0)" fill="currentColor"/></g></svg>