<svg xmlns="http://www.w3.org/2000/svg" xmlns:xlink="http://www.w3.org/1999/xlink" viewBox="0 0 26 26"><defs><clipPath id="a" transform="translate(0 0)"><rect width="26" height="26" fill="none"/></clipPath></defs><g clip-path="url(#a)"><path d="M26,13A13,13,0,1,1,13,0,13,13,0,0,1,26,13" transform="translate(0 0)" fill="currentColor"/><path d="M9.86,6.34A1.86,1.86,0,1,1,8,8.2,1.87,1.87,0,0,1,9.86,6.34m0-1A2.86,2.86,0,1,0,12.73,8.2,2.86,2.86,0,0,0,9.86,5.34" transform="translate(0 0)" fill="#fff"/><path d="M16.14,15.81a1.87,1.87,0,1,1-1.87,1.86,1.87,1.87,0,0,1,1.87-1.86m0-1A2.87,2.87,0,1,0,19,17.67a2.87,2.87,0,0,0-2.86-2.86" transform="translate(0 0)" fill="#fff"/><line x1="17.25" y1="5.99" x2="8.76" y2="20.01" fill="none" stroke="#fff" stroke-linecap="round" stroke-miterlimit="10"/></g></svg>