<svg xmlns="http://www.w3.org/2000/svg" xmlns:xlink="http://www.w3.org/1999/xlink" viewBox="0 0 25 23.21"><defs><clipPath id="a" transform="translate(0 0)"><rect width="25" height="23.21" fill="none"/></clipPath></defs><g clip-path="url(#a)"><path d="M24.73,6.1a8.29,8.29,0,0,0-4-5.26c-3.18-1.61-6.41-.56-8.24.34C10.67.28,7.44-.77,4.26.84a8.29,8.29,0,0,0-4,5.26A8.44,8.44,0,0,0,1.48,13l-.06-.11c1,1.86,8.72,8.38,11.08,10.33h0c2.36-1.95,10.1-8.47,11.08-10.33l-.06.11A8.44,8.44,0,0,0,24.73,6.1" transform="translate(0 0)" fill="currentColor"/></g></svg>