<svg xmlns="http://www.w3.org/2000/svg" viewBox="0 0 25 23.21"><path d="M76.7,79.55a6.83,6.83,0,0,1,3.1.73,7.29,7.29,0,0,1,3.47,4.62,7.4,7.4,0,0,1-1,6h0l-.07.11h0c-.71,1.17-4.59,4.77-10,9.31l-.15-.19-.15.19c-5.42-4.54-9.29-8.14-10-9.31h0l-.06-.11h0a7.39,7.39,0,0,1-1-6,7.22,7.22,0,0,1,3.47-4.62,6.79,6.79,0,0,1,3.09-.73,9.9,9.9,0,0,1,4.25,1.07l.44.22.44-.22a9.94,9.94,0,0,1,4.25-1.07m0-1A10.86,10.86,0,0,0,72,79.73a10.79,10.79,0,0,0-4.69-1.18,7.78,7.78,0,0,0-3.55.84,8.28,8.28,0,0,0-4,5.26A8.38,8.38,0,0,0,61,91.5a.25.25,0,0,1,0-.07l.07.11,0,0c1.14,2,8.72,8.33,11,10.26h0c2.32-1.93,9.9-8.31,11-10.26l0,0,.07-.11a.25.25,0,0,0,0,.07,8.41,8.41,0,0,0,1.18-6.85,8.29,8.29,0,0,0-4-5.26,7.75,7.75,0,0,0-3.55-.84Z" transform="translate(-59.51 -78.55)" fill="currentColor"/></svg>