<svg xmlns="http://www.w3.org/2000/svg" viewBox="0 0 19.24 25"><path d="M129.91,84.84a3.53,3.53,0,1,1-3.53,3.52,3.53,3.53,0,0,1,3.53-3.52m0-1a4.53,4.53,0,1,0,4.52,4.52,4.53,4.53,0,0,0-4.52-4.52Z" transform="translate(-120.28 -78.74)" fill="currentColor"/><path d="M129.91,79.74a8.68,8.68,0,0,1,8.62,8.63c0,3.92-2.87,6.75-5.42,9.24a23.56,23.56,0,0,0-3.2,3.58,24.21,24.21,0,0,0-3.21-3.58c-2.55-2.49-5.44-5.32-5.42-9.24a8.68,8.68,0,0,1,8.63-8.63m0-1a9.65,9.65,0,0,0-9.63,9.62c0,7.44,9,10.93,9.63,15.38.64-4.45,9.66-7.94,9.62-15.38a9.65,9.65,0,0,0-9.62-9.62Z" transform="translate(-120.28 -78.74)" fill="currentColor"/></svg>