<svg xmlns="http://www.w3.org/2000/svg" xmlns:xlink="http://www.w3.org/1999/xlink" viewBox="0 0 8 19"><defs><clipPath id="a"><rect width="8" height="19" fill="none"/></clipPath></defs><g clip-path="url(#a)"><path d="M4,1A2,2,0,1,1,2,3,2,2,0,0,1,4,1M4,0A3,3,0,1,0,7,3,3,3,0,0,0,4,0" fill="currentColor"/><rect x="2" y="10" width="1" height="7" fill="currentColor"/><rect x="5" y="10" width="1" height="7" fill="currentColor"/><rect x="1" y="10" width="1" height="1" fill="currentColor"/><rect y="10" width="1" height="1" fill="currentColor"/><rect x="7" y="10" width="1" height="1" fill="currentColor"/><rect x="6" y="10" width="1" height="1" fill="currentColor"/><rect y="9" width="1" height="1" fill="currentColor"/><rect x="7" y="9" width="1" height="1" fill="currentColor"/><rect y="8" width="8" height="1" fill="currentColor"/><rect x="1" y="16" width="1" height="1" fill="currentColor"/><rect y="16" width="1" height="1" fill="currentColor"/><rect x="7" y="16" width="1" height="1" fill="currentColor"/><rect x="6" y="16" width="1" height="1" fill="currentColor"/><rect y="17" width="1" height="1" fill="currentColor"/><rect x="7" y="17" width="1" height="1" fill="currentColor"/><rect y="18" width="8" height="1" fill="currentColor"/></g></svg>