<svg xmlns="http://www.w3.org/2000/svg" xmlns:xlink="http://www.w3.org/1999/xlink" viewBox="0 0 16.58 21"><defs><clipPath id="a" transform="translate(0 0)"><rect width="16.58" height="21" fill="none"/></clipPath></defs><g clip-path="url(#a)"><path d="M4,1A3,3,0,1,1,1,4,3,3,0,0,1,4,1M4,0a4,4,0,1,0,4,4A4,4,0,0,0,4,0" transform="translate(0 0)" fill="currentColor"/><path d="M12.62,14.09a3,3,0,1,1-2.95,3,3,3,0,0,1,2.95-3m0-1a4,4,0,1,0,4,4,4,4,0,0,0-4-4" transform="translate(0 0)" fill="currentColor"/><line x1="14.15" y1="0.9" x2="2.42" y2="20.27" fill="none" stroke="currentColor" stroke-linecap="round" stroke-linejoin="round"/></g></svg>