<svg xmlns="http://www.w3.org/2000/svg" viewBox="0 0 15.7 15.7"><path d="M180.73,100.35l-3-2a.88.88,0,0,0-1.18.19l-.89,1.14a.37.37,0,0,1-.48.1l-.17-.09a14.08,14.08,0,0,1-4.73-4.73l-.1-.17a.39.39,0,0,1,.1-.49l1.14-.88a.89.89,0,0,0,.19-1.19l-2-3a.87.87,0,0,0-1.19-.27l-1.27.76a1.81,1.81,0,0,0-.82,1.06c-.45,1.67-.11,4.54,4.13,8.78,3.37,3.37,5.87,4.27,7.6,4.27a4.64,4.64,0,0,0,1.17-.15,1.78,1.78,0,0,0,1.06-.82l.77-1.27A.89.89,0,0,0,180.73,100.35Z" transform="translate(-165.77 -88.43)" fill="none" stroke="currentColor" stroke-miterlimit="10" stroke-width="0.7"/><path d="M174.58,89.45a5.68,5.68,0,0,1,5.67,5.66.33.33,0,0,0,.33.34.34.34,0,0,0,.33-.34,6.34,6.34,0,0,0-6.33-6.33.34.34,0,0,0,0,.67Z" transform="translate(-165.77 -88.43)" fill="currentColor"/><path d="M174.58,91.45a3.68,3.68,0,0,1,3.67,3.66.33.33,0,0,0,.33.34.34.34,0,0,0,.33-.34,4.33,4.33,0,0,0-4.33-4.33.34.34,0,0,0,0,.67Z" transform="translate(-165.77 -88.43)" fill="currentColor"/><path d="M174.58,93.45a1.67,1.67,0,0,1,1.67,1.66.33.33,0,0,0,.33.34.34.34,0,0,0,.33-.34,2.33,2.33,0,0,0-2.33-2.33.34.34,0,0,0,0,.67Z" transform="translate(-165.77 -88.43)" fill="currentColor"/></svg>