<svg xmlns="http://www.w3.org/2000/svg" xmlns:xlink="http://www.w3.org/1999/xlink" viewBox="0 0 29.4 23.08"><defs><clipPath id="a" transform="translate(0 0)"><rect width="29.4" height="23.08" fill="none"/></clipPath></defs><g clip-path="url(#a)"><path d="M10.37,5.08a5.29,5.29,0,1,0,5.29,5.29,5.29,5.29,0,0,0-5.29-5.29m0,9.58a4.29,4.29,0,1,1,4.29-4.29,4.29,4.29,0,0,1-4.29,4.29" transform="translate(0 0)" fill="currentColor"/><path d="M28.4,19.74H20.74V17.35a3.75,3.75,0,0,0,2.75-3.6V10.11H20.73A10.37,10.37,0,0,0,0,10.37v5.57a4.8,4.8,0,0,0,4.8,4.8H28.4v1.84a.5.5,0,0,0,.5.5.5.5,0,0,0,.5-.5V20.74a1,1,0,0,0-1-1m-5.91-6a2.75,2.75,0,0,1-1.75,2.56v-5.2h1.75Zm-3.22,6H4.8A3.81,3.81,0,0,1,1,15.94V10.37a9.37,9.37,0,0,1,18.74,0v9.38Z" transform="translate(0 0)" fill="currentColor"/></g></svg>