<svg xmlns="http://www.w3.org/2000/svg" xmlns:xlink="http://www.w3.org/1999/xlink" viewBox="0 0 24 23.97"><defs><clipPath id="a" transform="translate(0 0)"><rect width="24" height="23.97" fill="none"/></clipPath></defs><g clip-path="url(#a)"><path d="M12,1A11,11,0,1,1,1,12,11,11,0,0,1,12,1m0-1A12,12,0,1,0,24,12,12,12,0,0,0,12,0" transform="translate(0 0)" fill="currentColor"/><path d="M12.08,4.93a3.64,3.64,0,0,0-2.55.91,3.14,3.14,0,0,0-1,2.42H9.6a2.24,2.24,0,0,1,.7-1.71,2.5,2.5,0,0,1,1.78-.63,2.22,2.22,0,0,1,1.71.65,2.56,2.56,0,0,1,.61,1.81,3.54,3.54,0,0,1-.14,1,3,3,0,0,1-.41.82,11.87,11.87,0,0,1-1.17,1.27,5.17,5.17,0,0,0-1.19,1.56,4.84,4.84,0,0,0-.3,1.75h1.1a3.14,3.14,0,0,1,1-2.54,8.46,8.46,0,0,0,1.72-2,4,4,0,0,0,.45-1.87,3.43,3.43,0,0,0-.92-2.51,3.39,3.39,0,0,0-2.5-.92m-.28,12.2a.72.72,0,0,0-.56.22.75.75,0,0,0-.19.53.73.73,0,0,0,.19.52.75.75,0,0,0,.56.21.76.76,0,0,0,.56-.21.7.7,0,0,0,.21-.52.74.74,0,0,0-.77-.75" transform="translate(0 0)" fill="currentColor"/></g></svg>