<svg xmlns="http://www.w3.org/2000/svg" viewBox="0 0 35 21.38"><path d="M259.9,148.27c1.14,0,1.14-1.63,1.14-2.27a2.43,2.43,0,0,1,2.26-2.26c1.13,0,3.07,1.94,4.53,3.4,1.13,1.13,1.13,1.13,2.26,1.13h3.4a2.3,2.3,0,0,0,2.26-2.27c0-.7-.78-1.9-3.4-4.52-2.26-2.27-3.42-1.1,0-5.66,2.09-2.78,3.61-5.3,3.35-6S269.65,128,269,129a42.45,42.45,0,0,0-3.4,5.66c-1.13,2.26-1.24,3.39-2.26,3.39s-1.13-2.19-1.13-3.39c0-3.75.54-6.39-1.13-6.79h-3.4a6.62,6.62,0,0,0-3.4,1.13s-1.4,1.09-1.13,1.13,2.27-.47,2.27,1.13v2.27s0,4.52-1.14,4.52-3.39-4.52-5.65-7.92c-.89-1.33-1.13-1.13-2.27-1.13s-2.26.05-3.39.05-1.28.72-1.13,1.08c2.26,5.66,3.89,9.21,8.19,13.69,3.94,4.11,6.58,4.32,8.78,4.42C259.34,148.29,258.77,148.27,259.9,148.27Z" transform="translate(-241.25 -127.4)" fill="none" stroke="currentColor" stroke-miterlimit="10"/></svg>