<svg xmlns="http://www.w3.org/2000/svg" xmlns:xlink="http://www.w3.org/1999/xlink" width="68.46" height="66.63" viewBox="0 0 68.46 66.63"><defs><clipPath id="a"><rect width="68.46" height="66.63" fill="none"/></clipPath></defs><rect width="68.41" height="1" fill="#1d1d1b"/><rect y="65.63" width="68.41" height="1" fill="#1d1d1b"/><path d="M34.25,46.68v0Z" fill="#1d1d1b"/><rect x="33.88" y="24.75" width="0.75" height="21.94" fill="#1d1d1b"/><line x1="23.62" y1="34.88" x2="31.58" y2="44.15" fill="#1d1d1b"/><rect x="27.22" y="33.41" width="0.75" height="12.22" transform="translate(-19.09 27.54) rotate(-40.68)" fill="#1d1d1b"/><line x1="27.8" y1="29.33" x2="31.78" y2="33.96" fill="#1d1d1b"/><rect x="29.41" y="28.59" width="0.75" height="6.11" transform="translate(-13.43 27.06) rotate(-40.68)" fill="#1d1d1b"/><line x1="44.89" y1="34.88" x2="36.93" y2="44.15" fill="#1d1d1b"/><rect x="34.8" y="39.14" width="12.22" height="0.75" transform="translate(-15.72 44.79) rotate(-49.33)" fill="#1d1d1b"/><line x1="40.67" y1="29.33" x2="36.68" y2="33.96" fill="#1d1d1b"/><rect x="35.62" y="31.27" width="6.11" height="0.75" transform="translate(-10.53 40.36) rotate(-49.33)" fill="#1d1d1b"/><g clip-path="url(#a)"><path d="M62.13,30.4V27.68c0-1,0-1.95,0-2.95s0-2,.05-2.88,0-1.74.08-2.48a5.68,5.68,0,0,1,.48-2.27A3.45,3.45,0,0,1,64,15.75a5.8,5.8,0,0,1,1.9-.76q1.13-.27,2.61-.48V14.2c-.56,0-1.25,0-2.06,0s-1.64,0-2.51.11-1.69.1-2.49.13-1.5,0-2.1,0l-2.25,0-2.42-.08-2.3-.11-1.87-.1v.37A17.47,17.47,0,0,1,53.2,15a5.18,5.18,0,0,1,1.8.82,3.22,3.22,0,0,1,1,1.37,6.27,6.27,0,0,1,.39,2.12c0,.59.07,1.31.08,2.16s0,1.83,0,2.95l.08,7.63S34.25,6.62,34.25,6.62V10.2L52.07,31s0,0,0,.05a33.24,33.24,0,0,1-1.3,4,45.44,45.44,0,0,1-2,4.43q-1.17,2.24-2.59,4.41a31.32,31.32,0,0,1-3,3.9,18.43,18.43,0,0,1-3.3,2.91,7.89,7.89,0,0,1-3.5,1.37v.47a17.6,17.6,0,0,0,13.5-6.23,26.93,26.93,0,0,0,3.93-6.07q1.56-3.28,2.86-6.72s-.1,10.41-.1,11.57a24.35,24.35,0,0,1-.11,2.64A6.62,6.62,0,0,1,56,49.59a2.79,2.79,0,0,1-1,1.26,5.83,5.83,0,0,1-1.92.82,19.5,19.5,0,0,1-3.12.48v.37c.56,0,1.24-.08,2-.11s1.63-.06,2.51-.08l2.58,0,2.25,0,2.15,0c.8,0,1.62,0,2.44.08l2.43.08c.79,0,1.47,0,2,.08V52.2q-1.47-.21-2.61-.48A5.46,5.46,0,0,1,63.87,51a3.39,3.39,0,0,1-1.16-1.35,5.52,5.52,0,0,1-.48-2.27c0-.74-.06-1.87-.08-3.4s0-3.17,0-4.91V30.4Z" fill="#1d1d1b"/><path d="M28.67,50.68a18.43,18.43,0,0,1-3.3-2.91,30.39,30.39,0,0,1-3-3.9,49.84,49.84,0,0,1-2.6-4.41,43.06,43.06,0,0,1-2-4.43,33.43,33.43,0,0,1-1.31-4v-.1L31,14V10.33L11.89,32,12,24.43c0-1.12,0-2.11,0-2.95s.05-1.57.08-2.16a6.5,6.5,0,0,1,.4-2.12,3.22,3.22,0,0,1,1-1.37A5,5,0,0,1,15.3,15a17.82,17.82,0,0,1,2.75-.44V14.2l-1.88.1-2.29.11-2.42.08-2.26,0c-.59,0-1.29,0-2.09,0s-1.63-.08-2.5-.13-1.69-.09-2.5-.11-1.5,0-2.06,0v.31q1.47.21,2.61.48a5.8,5.8,0,0,1,1.9.76A3.45,3.45,0,0,1,5.75,17.1a5.53,5.53,0,0,1,.47,2.27c0,.74.06,1.56.08,2.48s0,1.87.06,2.88,0,2,0,2.95V39c0,1.74,0,3.38,0,4.91s-.05,2.66-.08,3.4a5.68,5.68,0,0,1-.48,2.27A3.47,3.47,0,0,1,4.64,51a5.54,5.54,0,0,1-1.87.76c-.76.18-1.63.34-2.62.48v.32c.57,0,1.24-.07,2-.08l2.42-.08c.83,0,1.65-.06,2.45-.08l2.15,0,2.25,0,2.58,0c.88,0,1.71,0,2.5.08l2,.11v-.37a19.5,19.5,0,0,1-3.12-.48,5.89,5.89,0,0,1-1.93-.82,2.93,2.93,0,0,1-1-1.26,6.62,6.62,0,0,1-.42-1.88,24.9,24.9,0,0,1-.1-2.64V41.64l-.1-8.14c.87,2.29,1.81,4.53,2.86,6.72a26.93,26.93,0,0,0,3.93,6.07,17.6,17.6,0,0,0,13.49,6.23v-.47a7.85,7.85,0,0,1-3.49-1.37" fill="#1d1d1b"/><path d="M37.62,63.9l.18.22,3-3-.41-.27a17.24,17.24,0,0,1-3.8-3.63,11.63,11.63,0,0,1-2.16-4.78l-.52.15a21.42,21.42,0,0,0,1,6.1,17.38,17.38,0,0,0,2.68,5.21" fill="#1d1d1b"/></g></svg>