<svg xmlns="http://www.w3.org/2000/svg" width="126.05mm" height="23.5mm" viewBox="0 0 357.32 66.63"><path d="M297,257.52l-13.88,16.16c.26.88.59,1.84,1,2.84a42.74,42.74,0,0,0,1.93,4.23c.77,1.47,1.61,2.89,2.49,4.24a30.45,30.45,0,0,0,2.81,3.65,16.38,16.38,0,0,0,2.95,2.6,6,6,0,0,0,2.5,1h3.92a6.06,6.06,0,0,0,2.51-1,16.61,16.61,0,0,0,2.93-2.59,29.36,29.36,0,0,0,2.81-3.66,49.18,49.18,0,0,0,2.5-4.24,43.69,43.69,0,0,0,1.93-4.22c.39-1,.71-1.94,1-2.81L298.7,255.49Z" transform="translate(-119.25 -242.22)" fill="#ccbf49"/><rect x="145.2" width="68.41" height="1" fill="#1d1d1b"/><rect x="145.2" y="65.63" width="68.41" height="1" fill="#1d1d1b"/><line x1="179.45" y1="46.68" x2="179.45" y2="24.75" fill="#1d1d1b"/><rect x="179.08" y="24.75" width="0.75" height="21.94" fill="#1d1d1b"/><line x1="168.82" y1="34.88" x2="176.78" y2="44.15" fill="#1d1d1b"/><rect x="291.67" y="275.63" width="0.75" height="12.22" transform="translate(-232.32 16.23) rotate(-40.68)" fill="#1d1d1b"/><line x1="173" y1="29.33" x2="176.98" y2="33.96" fill="#1d1d1b"/><rect x="293.86" y="270.81" width="0.75" height="6.11" transform="translate(-226.66 15.73) rotate(-40.68)" fill="#1d1d1b"/><line x1="190.09" y1="34.88" x2="182.13" y2="44.15" fill="#1d1d1b"/><rect x="299.25" y="281.36" width="12.22" height="0.75" transform="translate(-226.58 87.55) rotate(-49.33)" fill="#1d1d1b"/><line x1="185.87" y1="29.33" x2="181.88" y2="33.96" fill="#1d1d1b"/><rect x="300.07" y="273.49" width="6.11" height="0.75" transform="translate(-221.39 83.11) rotate(-49.33)" fill="#1d1d1b"/><path d="M326.57,272.62V269.9c0-1,0-1.95,0-2.95s0-2,0-2.88.05-1.74.08-2.48a5.68,5.68,0,0,1,.48-2.27,3.43,3.43,0,0,1,1.18-1.35,6.13,6.13,0,0,1,1.9-.76c.76-.18,1.63-.34,2.62-.48v-.31l-2.06,0c-.81,0-1.65.06-2.51.11s-1.69.1-2.5.13-1.5.05-2.09.05-1.45,0-2.25,0l-2.42-.08-2.3-.11-1.87-.1v.37a16.44,16.44,0,0,1,2.74.45,5,5,0,0,1,1.8.81,3.23,3.23,0,0,1,1,1.38,5.91,5.91,0,0,1,.4,2.11c0,.6.06,1.32.08,2.16s0,1.83,0,3l.08,7.62s-22.36-25.43-22.36-25.43v3.57l17.81,20.79s0,0,0,.05a31.71,31.71,0,0,1-1.31,4,43.06,43.06,0,0,1-2,4.43q-1.17,2.24-2.59,4.41a32.31,32.31,0,0,1-3,3.9,18.77,18.77,0,0,1-3.3,2.91,7.93,7.93,0,0,1-3.5,1.37v.47a17.56,17.56,0,0,0,13.49-6.23,26.26,26.26,0,0,0,3.93-6.07c1.05-2.19,2-4.43,2.87-6.72,0,0-.1,10.41-.1,11.57a24.09,24.09,0,0,1-.11,2.64,6.62,6.62,0,0,1-.42,1.88,2.86,2.86,0,0,1-1,1.26,5.89,5.89,0,0,1-1.93.82,19.35,19.35,0,0,1-3.11.48v.37l2-.11,2.51-.08,2.58-.05,2.25,0,2.15,0c.8,0,1.61,0,2.44.08l2.43.08c.79,0,1.47,0,2,.08v-.32c-1-.14-1.85-.3-2.61-.47a5.81,5.81,0,0,1-1.88-.77,3.4,3.4,0,0,1-1.16-1.35,5.53,5.53,0,0,1-.47-2.27c0-.73-.06-1.87-.08-3.4s0-3.17,0-4.91v-8.63Z" transform="translate(-119.25 -242.22)" fill="#1d1d1b"/><path d="M293.11,292.9a18.73,18.73,0,0,1-3.29-2.91,31.37,31.37,0,0,1-3-3.9q-1.43-2.18-2.59-4.41a43.06,43.06,0,0,1-2-4.43,33.43,33.43,0,0,1-1.31-4,.33.33,0,0,1,0-.1l14.55-16.94v-3.67l-19.1,21.72.08-7.61c0-1.13,0-2.11,0-3s0-1.56.08-2.16a6.14,6.14,0,0,1,.4-2.11,3.23,3.23,0,0,1,1-1.38,5,5,0,0,1,1.8-.81,16.44,16.44,0,0,1,2.74-.45v-.37l-1.87.1-2.3.11-2.42.08c-.8,0-1.55,0-2.25,0s-1.29,0-2.09-.05-1.64-.08-2.5-.13-1.7-.09-2.51-.11l-2.06,0v.31c1,.15,1.86.3,2.62.48a6.13,6.13,0,0,1,1.9.76,3.53,3.53,0,0,1,1.19,1.35,5.7,5.7,0,0,1,.47,2.27c0,.74.06,1.57.08,2.48s0,1.87.05,2.88,0,2,0,2.95v11.35c0,1.74,0,3.38,0,4.91s0,2.67-.08,3.4a5.53,5.53,0,0,1-.47,2.27,3.4,3.4,0,0,1-1.16,1.35,5.81,5.81,0,0,1-1.88.77c-.75.17-1.62.33-2.61.47v.32c.56,0,1.24-.06,2-.08l2.43-.08c.83,0,1.64-.06,2.45-.08l2.14,0,2.25,0,2.58.05,2.51.08,2,.11v-.37a19.54,19.54,0,0,1-3.11-.48,5.89,5.89,0,0,1-1.93-.82,2.86,2.86,0,0,1-1-1.26,6.62,6.62,0,0,1-.42-1.88,24.09,24.09,0,0,1-.11-2.64v-3.43l-.1-8.14c.88,2.29,1.82,4.53,2.87,6.72a26.26,26.26,0,0,0,3.93,6.07,17.56,17.56,0,0,0,13.49,6.23v-.47a7.93,7.93,0,0,1-3.5-1.37" transform="translate(-119.25 -242.22)" fill="#1d1d1b"/><path d="M302.07,306.12a1.92,1.92,0,0,0,.18.22l3-3-.41-.27a17.24,17.24,0,0,1-3.8-3.63,11.51,11.51,0,0,1-2.16-4.78l-.53.15a22.21,22.21,0,0,0,1,6.11,17.58,17.58,0,0,0,2.69,5.2" transform="translate(-119.25 -242.22)" fill="#1d1d1b"/><path d="M358.49,295.14H358q-3.21-7.5-5.85-13.51-1.11-2.6-2.22-5.1t-2-4.59l-1.56-3.51c-.42-.95-.69-1.56-.79-1.85s-.4-.83-.77-1.55-.76-1.46-1.16-2.22-.79-1.46-1.16-2.11a11.39,11.39,0,0,0-.77-1.24,6.85,6.85,0,0,0-2.5-1.9,13.55,13.55,0,0,0-3.3-.79v-.48l2.08.13c.79.06,1.6.1,2.43.13s1.64.07,2.43.08l2.08,0h1.32c.64,0,1.36,0,2.17-.05l2.58-.11a25.39,25.39,0,0,0,2.59-.21v.42a10.47,10.47,0,0,1-1.27.27,5.12,5.12,0,0,0-1.24.34,2.58,2.58,0,0,0-.92.66,1.77,1.77,0,0,0-.37,1.21,6,6,0,0,0,.26,1.56,21.32,21.32,0,0,0,.85,2.3c.24.63.57,1.45,1,2.45s.85,2.1,1.32,3.3,1,2.45,1.54,3.77,1.08,2.62,1.61,3.88q1.85,4.49,3.95,9.66s0-.05.06-.05a.16.16,0,0,0,.1-.05c.25-.67.67-1.67,1.27-3l2.08-4.65q1.2-2.64,2.56-5.8c.92-2.11,1.83-4.26,2.75-6.44.32-.78.63-1.52.95-2.24s.58-1.39.79-2c.56-1.66.46-2.87-.32-3.65a7.36,7.36,0,0,0-4.17-1.58v-.32a20.65,20.65,0,0,1,3.57.11,32.92,32.92,0,0,0,3.67.21c1.4,0,2.83,0,4.27-.13l3.7-.24v.37a10.3,10.3,0,0,0-3.22.82,7.14,7.14,0,0,0-2.27,1.61,11.14,11.14,0,0,0-1.67,2.29c-.47.87-.94,1.81-1.4,2.83Z" transform="translate(-119.25 -242.22)" fill="#1d1d1b"/><path d="M400.42,294.56c-.79,0-1.62-.06-2.5-.08l-2.6-.05-2.29,0-2.18,0c-.81,0-1.63,0-2.46.07s-1.64.07-2.43.08-1.47.05-2,.08v-.31c1-.14,1.86-.3,2.61-.48a5.6,5.6,0,0,0,1.88-.76,3.55,3.55,0,0,0,1.16-1.35,5.53,5.53,0,0,0,.47-2.27c0-.74.06-1.87.06-3.4V272.55c0-.85,0-1.75,0-2.72s0-1.95,0-3V264c0-.92,0-1.75-.05-2.48a5.33,5.33,0,0,0-.51-2.27,3.51,3.51,0,0,0-1.24-1.35,6.37,6.37,0,0,0-1.92-.77c-.76-.17-1.63-.33-2.62-.47v-.32l2.06,0c.81,0,1.65.05,2.51.11l2.52.13c.81,0,1.52.05,2.12.05l2.29,0c.82,0,1.63,0,2.44-.08l2.3-.1,1.87-.11v.37a19,19,0,0,0-2.75.45,5.22,5.22,0,0,0-1.79.82,3.22,3.22,0,0,0-1,1.37,6.44,6.44,0,0,0-.4,2.11c0,.6-.06,1.32-.07,2.17s0,1.83,0,2.95v20.64a24.9,24.9,0,0,0,.1,2.64,6.53,6.53,0,0,0,.43,1.87,2.82,2.82,0,0,0,1,1.27,6,6,0,0,0,1.92.82,18.55,18.55,0,0,0,3.12.47v.37l-2-.1" transform="translate(-119.25 -242.22)" fill="#1d1d1b"/><path d="M435,284.05a10.55,10.55,0,0,1-1.12,5,10.37,10.37,0,0,1-3,3.54,12.78,12.78,0,0,1-4.29,2.08,18.25,18.25,0,0,1-5,.69,14.82,14.82,0,0,1-5.55-1.08,18.16,18.16,0,0,1-4.9-2.93c.14-1.3.24-2.52.31-3.64s.14-2.47.21-4h.37q.42,5,3.12,7.45a9.87,9.87,0,0,0,7,2.48,7.27,7.27,0,0,0,2.91-.58,7.56,7.56,0,0,0,2.27-1.53,6.8,6.8,0,0,0,1.45-2.19,7.49,7.49,0,0,0,.18-4.86,6.07,6.07,0,0,0-1-1.87,12.23,12.23,0,0,0-1.79-1.85c-.74-.64-1.62-1.32-2.64-2.06q-1.84-1.32-3.78-2.61a25.67,25.67,0,0,1-3.48-2.8,12.88,12.88,0,0,1-2.53-3.4,9.62,9.62,0,0,1-1-4.49,8.83,8.83,0,0,1,.84-3.83,9,9,0,0,1,2.41-3.06,11.9,11.9,0,0,1,3.74-2.06,14.76,14.76,0,0,1,4.89-.76c.63,0,1.33,0,2.11.1a22.25,22.25,0,0,1,2.35.35,15.78,15.78,0,0,1,2.29.63,10.18,10.18,0,0,1,2,.92c0,1.24,0,2.48.07,3.75s.17,2.52.24,3.75l-.47.16a11.57,11.57,0,0,0-1.3-4,8.71,8.71,0,0,0-2.13-2.56,7.72,7.72,0,0,0-2.56-1.35,9.1,9.1,0,0,0-2.51-.39,6.23,6.23,0,0,0-2.56.52,7,7,0,0,0-2.06,1.4,6.27,6.27,0,0,0-1.37,2.09,6.45,6.45,0,0,0-.5,2.53,5.37,5.37,0,0,0,.36,2,6.38,6.38,0,0,0,1.11,1.74,15.08,15.08,0,0,0,1.76,1.69c.69.56,1.48,1.16,2.4,1.79,1.22.92,2.5,1.82,3.81,2.7a26.5,26.5,0,0,1,3.63,2.87,14.18,14.18,0,0,1,2.71,3.43,8.67,8.67,0,0,1,1,4.3" transform="translate(-119.25 -242.22)" fill="#1d1d1b"/><path d="M474.87,264.37l-.42-.11c.14-2.11-.24-3.54-1.13-4.3a6.94,6.94,0,0,0-4.36-1.19l-8.6-.1-.05,22.74v5.81a24.9,24.9,0,0,0,.1,2.64,6.55,6.55,0,0,0,.42,1.87,2.89,2.89,0,0,0,1,1.27,6.11,6.11,0,0,0,1.93.82,18.57,18.57,0,0,0,3.11.47v.37l-2-.1c-.79,0-1.63-.06-2.51-.08l-2.58-.05-2.27,0-2.17,0c-.81,0-1.62,0-2.45.07s-1.64.07-2.43.08-1.47.05-2,.08v-.31q1.47-.21,2.61-.48a6,6,0,0,0,1.9-.76,3.23,3.23,0,0,0,1.16-1.35,5.73,5.73,0,0,0,.45-2.27c0-.7.06-1.8.08-3.3s0-3.09,0-4.78V267.9c0-1,0-2.07,0-3.16s0-2.1,0-3v-3.06l-8.55.1a10.44,10.44,0,0,0-2.56.26,4.08,4.08,0,0,0-1.66.88,6.72,6.72,0,0,0-1.27,1.55c-.38.64-.84,1.41-1.37,2.33l-.37-.27c0-.1.11-.62.32-1.56s.46-2,.74-3.08.68-2.71,1.11-4.33l.31-.32a3,3,0,0,0,1.16,1.22,7.61,7.61,0,0,0,1.56.66,9.5,9.5,0,0,0,1.69.31c.58.05,1.08.08,1.51.08l10.5.26,12.09-.26c1.23,0,2.21-.1,2.95-.18a7.57,7.57,0,0,0,1.8-.4,2.72,2.72,0,0,0,1-.61,4.32,4.32,0,0,0,.58-.81l.42.21Z" transform="translate(-119.25 -242.22)" fill="#1d1d1b"/><path d="M150.76,283.07a10.49,10.49,0,0,1-1,4.44,11.37,11.37,0,0,1-2.82,3.74,13.67,13.67,0,0,1-4.46,2.59,17.06,17.06,0,0,1-5.83,1l-8-.37-9.44.32v-.37a23.74,23.74,0,0,0,2.66-.42,5.57,5.57,0,0,0,1.93-.82,3.64,3.64,0,0,0,1.21-1.43,5.87,5.87,0,0,0,.48-2.29c0-.74,0-1.87,0-3.38V267q0-1.46,0-2.82c0-.92,0-1.75-.07-2.48a6.1,6.1,0,0,0-.45-2.27,3.54,3.54,0,0,0-1.16-1.38,5.78,5.78,0,0,0-1.9-.79c-.76-.17-1.63-.33-2.62-.47v-.37c1.9,0,3.52.05,4.86.16s2.51.15,3.53.15c.6,0,1.26,0,2,0s1.38-.06,2-.13l2.11-.22a21.06,21.06,0,0,1,4.52.19,14.2,14.2,0,0,1,4.3,1.32,8.7,8.7,0,0,1,3.22,2.74,7.62,7.62,0,0,1,1.27,4.52,7.06,7.06,0,0,1-.8,3.45,9.4,9.4,0,0,1-1.87,2.46,10.77,10.77,0,0,1-2.14,1.58,9.34,9.34,0,0,1-1.58.74v.26a17.25,17.25,0,0,1,3.69.95,12,12,0,0,1,3.22,1.83,8.24,8.24,0,0,1,2.27,2.79,8.37,8.37,0,0,1,.85,3.88m-6.18,1.16a8.76,8.76,0,0,0-.84-3.85,9.76,9.76,0,0,0-2.27-3,10.84,10.84,0,0,0-3.27-2,10.46,10.46,0,0,0-3.8-.55h-3.52v-1.3h3.52a7.23,7.23,0,0,0,2.93-.44,6.12,6.12,0,0,0,2.16-1.61,7.13,7.13,0,0,0,1.32-2.43,9.88,9.88,0,0,0,.45-3,9.09,9.09,0,0,0-.61-3.43,7.09,7.09,0,0,0-1.69-2.5,7.24,7.24,0,0,0-2.48-1.56,8.42,8.42,0,0,0-3-.53,2.16,2.16,0,0,0-1.88.66,2.28,2.28,0,0,0-.44,1.24v12.85c0,.94,0,1.81,0,2.62s0,1.52,0,2.13v3.12c0,1,0,2,0,3.11s0,2.13.06,3.06,0,1.49,0,1.67a8.64,8.64,0,0,0,.32,2.05,3.26,3.26,0,0,0,.92,1.51,4.34,4.34,0,0,0,1.75.92,10.32,10.32,0,0,0,2.82.32,7.19,7.19,0,0,0,4.91-2.09,8.19,8.19,0,0,0,1.82-2.79,10.75,10.75,0,0,0,.71-4.15" transform="translate(-119.25 -242.22)" fill="#1d1d1b"/><path d="M169.49,280.86c0,1.4,0,2.77,0,4.09s.05,2.54.05,3.66a18.35,18.35,0,0,1-1,6.26,16.89,16.89,0,0,1-2.87,5.12,17.87,17.87,0,0,1-4.44,3.83,21.71,21.71,0,0,1-5.7,2.42l-.26-.47a11.65,11.65,0,0,0,4.14-3.22,17.18,17.18,0,0,0,2.64-4.54,24.31,24.31,0,0,0,1.4-5.2,34,34,0,0,0,.42-5.2v-1.13c0-.62,0-1.37,0-2.25s0-1.84,0-2.9,0-2.12,0-3.19,0-2.09,0-3v-11c0-.91,0-1.74-.06-2.48a5.53,5.53,0,0,0-.47-2.27,3.45,3.45,0,0,0-1.19-1.35,5.8,5.8,0,0,0-1.9-.76q-1.14-.27-2.61-.48v-.31l2.06,0c.81,0,1.64.06,2.5.11s1.7.1,2.51.13,1.51.05,2.11.05,1.46,0,2.27,0l2.43-.08,2.3-.11,1.87-.1v.37a16.26,16.26,0,0,0-2.74.45,5,5,0,0,0-1.8.81,3.25,3.25,0,0,0-1,1.38,6.16,6.16,0,0,0-.39,2.11c0,.6-.07,1.32-.08,2.16s0,1.83,0,3l0,10v4.23Z" transform="translate(-119.25 -242.22)" fill="#1d1d1b"/><path d="M220.07,275.05a22.62,22.62,0,0,1-1.47,8.23,19.58,19.58,0,0,1-4.11,6.57,18.69,18.69,0,0,1-6.26,4.33,19.64,19.64,0,0,1-7.87,1.56,18.73,18.73,0,0,1-7.94-1.64,18.45,18.45,0,0,1-6-4.38,19.52,19.52,0,0,1-3.84-6.38,22.1,22.1,0,0,1,0-15,19.78,19.78,0,0,1,3.79-6.44,19.13,19.13,0,0,1,6.16-4.57,19.42,19.42,0,0,1,8.41-1.74,21.09,21.09,0,0,1,7.68,1.37,17.47,17.47,0,0,1,10.09,10,21.58,21.58,0,0,1,1.45,8.08m-18.39,18.84a8.57,8.57,0,0,0,4-1,10.14,10.14,0,0,0,3.54-3.17,18.14,18.14,0,0,0,2.53-5.5,28.9,28.9,0,0,0,1-8,27.88,27.88,0,0,0-.94-7.4,19.88,19.88,0,0,0-2.64-6,13.63,13.63,0,0,0-4.1-4,9.81,9.81,0,0,0-5.24-1.48,8.84,8.84,0,0,0-4.49,1.19,11.13,11.13,0,0,0-3.58,3.41,17.39,17.39,0,0,0-2.36,5.45,28.27,28.27,0,0,0-.85,7.24,28.66,28.66,0,0,0,1,7.58,21.51,21.51,0,0,0,2.67,6.14,13,13,0,0,0,4.14,4.09,10.13,10.13,0,0,0,5.38,1.48" transform="translate(-119.25 -242.22)" fill="#1d1d1b"/><path d="M199.26,250.38a3.52,3.52,0,1,1-3.52-3.52,3.53,3.53,0,0,1,3.52,3.52" transform="translate(-119.25 -242.22)" fill="#1d1d1b" fill-rule="evenodd"/><path d="M209,250.38a3.52,3.52,0,1,1-3.52-3.52,3.52,3.52,0,0,1,3.52,3.52" transform="translate(-119.25 -242.22)" fill="#1d1d1b" fill-rule="evenodd"/><path d="M255.72,292.9a18.73,18.73,0,0,1-3.29-2.91,30.39,30.39,0,0,1-3-3.9,49.84,49.84,0,0,1-2.6-4.41,44.45,44.45,0,0,1-2-4.27l4.07-1.73a19.78,19.78,0,0,0,5-4,8.13,8.13,0,0,0,2-5.54,7.84,7.84,0,0,0-1.37-4.78,9.37,9.37,0,0,0-3.51-2.93,16.71,16.71,0,0,0-4.75-1.48,32.41,32.41,0,0,0-5.15-.42l-6.12.16c-.88,0-2,0-3.46-.11s-3.26-.1-5.51-.1v.37c1,.14,1.85.3,2.59.47a5.55,5.55,0,0,1,1.84.77,3,3,0,0,1,1.11,1.34,6.2,6.2,0,0,1,.42,2.27c.07,1.76.12,3.42.14,5s0,3.11,0,4.68,0,3.17,0,4.82,0,3.44,0,5.34v4.77c0,1.5,0,2.6-.05,3.3a5.68,5.68,0,0,1-.48,2.27,3.55,3.55,0,0,1-1.16,1.35,5.54,5.54,0,0,1-1.87.76c-.76.18-1.63.34-2.62.48v.31c.57,0,1.24-.06,2-.07l2.42-.08c.83,0,1.65-.07,2.45-.08l2.15,0,2.25,0,2.58.05c.87,0,1.71,0,2.5.08l2,.1v-.36a19.54,19.54,0,0,1-3.11-.48,5.89,5.89,0,0,1-1.93-.82,2.9,2.9,0,0,1-1-1.27,6.47,6.47,0,0,1-.42-1.87,28.78,28.78,0,0,1-.1-2.93v-8.52a15.19,15.19,0,0,0,1.53,0c.26,0,.51,0,.77,0,.56,1.38,1.05,2.47,1.77,4a26.93,26.93,0,0,0,3.93,6.07,17.6,17.6,0,0,0,13.49,6.23v-.47a7.93,7.93,0,0,1-3.5-1.37m-18.05-15.8v-2.16l.06-8.39v-8.08l.37-.53a16.18,16.18,0,0,1,4.37.61,11.46,11.46,0,0,1,3.82,1.88,9.53,9.53,0,0,1,2.7,3.24,10.1,10.1,0,0,1,1,4.73,6,6,0,0,1-1.08,3.43,10.12,10.12,0,0,1-2.84,2.72,16.1,16.1,0,0,1-3.95,1.82,16.27,16.27,0,0,1-4.48.73" transform="translate(-119.25 -242.22)" fill="#1d1d1b"/></svg>