<svg xmlns="http://www.w3.org/2000/svg" width="357.32" height="66.63" viewBox="0 0 357.32 66.63"><path d="M296.55,257.52l-13.88,16.16c.26.88.59,1.84,1,2.84a40.72,40.72,0,0,0,1.94,4.23,46.65,46.65,0,0,0,2.49,4.24,28.52,28.52,0,0,0,2.81,3.65,16.68,16.68,0,0,0,2.94,2.6,6,6,0,0,0,2.5,1h3.93a6.12,6.12,0,0,0,2.51-1,17.35,17.35,0,0,0,2.93-2.59,30.35,30.35,0,0,0,2.81-3.66,46.65,46.65,0,0,0,2.49-4.24,39.34,39.34,0,0,0,1.93-4.22c.39-1,.72-1.94,1-2.81l-15.62-18.23Z" transform="translate(-118.84 -242.22)" fill="#ccbf49"/><rect x="145.2" width="68.41" height="1" fill="#fff"/><rect x="145.2" y="65.63" width="68.41" height="1" fill="#fff"/><line x1="179.45" y1="46.68" x2="179.45" y2="24.75" fill="#1d1d1b"/><rect x="179.08" y="24.75" width="0.75" height="21.94" fill="#1d1d1b"/><line x1="168.82" y1="34.88" x2="176.78" y2="44.15" fill="#1d1d1b"/><rect x="291.26" y="275.63" width="0.75" height="12.22" transform="translate(-232.02 15.97) rotate(-40.68)" fill="#1d1d1b"/><line x1="173" y1="29.33" x2="176.98" y2="33.96" fill="#1d1d1b"/><rect x="293.46" y="270.81" width="0.75" height="6.11" transform="translate(-226.36 15.52) rotate(-40.68)" fill="#1d1d1b"/><line x1="190.09" y1="34.88" x2="182.13" y2="44.15" fill="#1d1d1b"/><rect x="298.84" y="281.36" width="12.22" height="0.75" transform="translate(-226.31 87.24) rotate(-49.33)" fill="#1d1d1b"/><line x1="185.87" y1="29.33" x2="181.88" y2="33.96" fill="#1d1d1b"/><rect x="299.66" y="273.49" width="6.11" height="0.75" transform="translate(-221.12 82.8) rotate(-49.33)" fill="#1d1d1b"/><path d="M326.17,272.62V269.9c0-1,0-1.95,0-2.95s0-2,.06-2.88,0-1.74.08-2.48a5.53,5.53,0,0,1,.47-2.27A3.45,3.45,0,0,1,328,258a6,6,0,0,1,1.9-.76q1.14-.27,2.61-.48v-.31l-2.06,0c-.81,0-1.64.06-2.5.11s-1.7.1-2.5.13-1.5.05-2.1.05-1.44,0-2.25,0l-2.42-.08-2.3-.11-1.87-.1v.37a16.26,16.26,0,0,1,2.74.45,5,5,0,0,1,1.8.81,3.25,3.25,0,0,1,1,1.38,6.38,6.38,0,0,1,.4,2.11c0,.6.06,1.32.07,2.16s0,1.83,0,3l.09,7.62s-22.36-25.43-22.36-25.43v3.57l17.81,20.79v.05a35.34,35.34,0,0,1-1.31,4,45.3,45.3,0,0,1-2,4.43c-.79,1.49-1.64,3-2.6,4.41a30.39,30.39,0,0,1-3,3.9,18.43,18.43,0,0,1-3.3,2.91,7.9,7.9,0,0,1-3.49,1.37v.47a17.6,17.6,0,0,0,13.49-6.23,26.93,26.93,0,0,0,3.93-6.07q1.56-3.29,2.86-6.72s-.1,10.41-.1,11.57a24.65,24.65,0,0,1-.1,2.64,6.28,6.28,0,0,1-.43,1.88,2.84,2.84,0,0,1-1,1.26,5.89,5.89,0,0,1-1.93.82,19.5,19.5,0,0,1-3.12.48v.37l2-.11,2.5-.08,2.58-.05,2.25,0,2.15,0c.8,0,1.62,0,2.45.08l2.42.08c.79,0,1.47,0,2,.08v-.32c-1-.14-1.86-.3-2.62-.47a5.75,5.75,0,0,1-1.87-.77,3.4,3.4,0,0,1-1.16-1.35,5.68,5.68,0,0,1-.48-2.27c0-.73-.06-1.87-.08-3.4s0-3.17,0-4.91v-8.63Z" transform="translate(-118.84 -242.22)" fill="#fff"/><path d="M292.71,292.9a18.43,18.43,0,0,1-3.3-2.91,30.39,30.39,0,0,1-3-3.9,49.84,49.84,0,0,1-2.6-4.41,45.3,45.3,0,0,1-2-4.43,35.34,35.34,0,0,1-1.31-4v-.1L295,256.22v-3.67l-19.1,21.72.09-7.61c0-1.13,0-2.11,0-3s0-1.56.08-2.16a6.38,6.38,0,0,1,.4-2.11,3.25,3.25,0,0,1,1-1.38,5,5,0,0,1,1.79-.81,16.58,16.58,0,0,1,2.75-.45v-.37l-1.88.1-2.29.11-2.42.08c-.81,0-1.56,0-2.25,0s-1.29,0-2.1-.05-1.63-.08-2.5-.13-1.69-.09-2.5-.11l-2.06,0v.31c1,.15,1.85.3,2.61.48a6,6,0,0,1,1.9.76,3.45,3.45,0,0,1,1.19,1.35,5.53,5.53,0,0,1,.47,2.27c0,.74.07,1.57.09,2.48s0,1.87,0,2.88,0,2,0,2.95v11.35c0,1.74,0,3.38,0,4.91s0,2.67-.08,3.4a5.68,5.68,0,0,1-.48,2.27,3.4,3.4,0,0,1-1.16,1.35,5.75,5.75,0,0,1-1.87.77c-.76.17-1.63.33-2.62.47v.32c.57,0,1.25-.06,2-.08l2.42-.08c.83,0,1.65-.06,2.45-.08l2.15,0,2.25,0,2.58.05,2.5.08,2,.11v-.37a19.5,19.5,0,0,1-3.12-.48,5.89,5.89,0,0,1-1.93-.82,2.84,2.84,0,0,1-1-1.26,6.28,6.28,0,0,1-.43-1.88,24.65,24.65,0,0,1-.1-2.64v-3.43l-.1-8.14c.87,2.29,1.81,4.53,2.86,6.72a26.93,26.93,0,0,0,3.93,6.07,17.6,17.6,0,0,0,13.49,6.23v-.47a7.85,7.85,0,0,1-3.49-1.37" transform="translate(-118.84 -242.22)" fill="#fff"/><path d="M301.66,306.12l.18.22,3-3-.41-.27a17.19,17.19,0,0,1-3.79-3.63,11.52,11.52,0,0,1-2.17-4.78l-.52.15a21.49,21.49,0,0,0,1,6.11,17.56,17.56,0,0,0,2.68,5.2" transform="translate(-118.84 -242.22)" fill="#fff"/><path d="M358.08,295.14h-.47q-3.23-7.5-5.86-13.51-1.11-2.6-2.22-5.1c-.74-1.67-1.41-3.2-2-4.59s-1.13-2.56-1.56-3.51-.68-1.56-.79-1.85-.39-.83-.76-1.55-.76-1.46-1.16-2.22-.8-1.46-1.17-2.11a11.93,11.93,0,0,0-.76-1.24,6.87,6.87,0,0,0-2.51-1.9,13.32,13.32,0,0,0-3.3-.79v-.48l2.09.13c.79.06,1.6.1,2.43.13s1.63.07,2.42.08l2.09,0h1.32c.63,0,1.35,0,2.16-.05l2.59-.11a25.42,25.42,0,0,0,2.58-.21v.42a10.29,10.29,0,0,1-1.26.27,5,5,0,0,0-1.24.34,2.62,2.62,0,0,0-.93.66,1.82,1.82,0,0,0-.37,1.21,5.67,5.67,0,0,0,.27,1.56,21,21,0,0,0,.84,2.3c.25.63.57,1.45,1,2.45l1.32,3.3c.47,1.2,1,2.45,1.53,3.77s1.08,2.62,1.61,3.88q1.84,4.49,4,9.66a0,0,0,0,1,.05-.05A.18.18,0,0,0,360,286c.24-.67.66-1.67,1.26-3l2.09-4.65q1.19-2.64,2.56-5.8c.91-2.11,1.83-4.26,2.74-6.44.32-.78.64-1.52.95-2.24s.58-1.39.79-2c.57-1.66.46-2.87-.31-3.65a7.42,7.42,0,0,0-4.17-1.58v-.32a20.56,20.56,0,0,1,3.56.11,32.92,32.92,0,0,0,3.67.21c1.41,0,2.83,0,4.27-.13l3.7-.24v.37a10.3,10.3,0,0,0-3.22.82,7.14,7.14,0,0,0-2.27,1.61,11.1,11.1,0,0,0-1.66,2.29c-.48.87-.94,1.81-1.4,2.83Z" transform="translate(-118.84 -242.22)" fill="#fff"/><path d="M400,294.56c-.79,0-1.63-.06-2.51-.08l-2.59-.05-2.29,0-2.18,0c-.82,0-1.64,0-2.46.07s-1.64.07-2.43.08-1.47.05-2,.08v-.31c1-.14,1.86-.3,2.62-.48a5.54,5.54,0,0,0,1.87-.76,3.55,3.55,0,0,0,1.16-1.35,5.68,5.68,0,0,0,.48-2.27c0-.74.05-1.87.05-3.4V272.55c0-.85,0-1.75,0-2.72s0-1.95,0-3V264c0-.92,0-1.75-.05-2.48a5.19,5.19,0,0,0-.5-2.27A3.51,3.51,0,0,0,388,257.9a6.43,6.43,0,0,0-1.93-.77c-.76-.17-1.63-.33-2.61-.47v-.32l2.06,0c.81,0,1.64.05,2.51.11l2.51.13c.82,0,1.53.05,2.13.05l2.29,0c.81,0,1.62,0,2.43-.08l2.3-.1,1.87-.11v.37a18.82,18.82,0,0,0-2.74.45,5.18,5.18,0,0,0-1.8.82,3.2,3.2,0,0,0-1,1.37,6.19,6.19,0,0,0-.4,2.11c0,.6-.06,1.32-.08,2.17s0,1.83,0,2.95v20.64a24.35,24.35,0,0,0,.11,2.64,6.55,6.55,0,0,0,.42,1.87,2.89,2.89,0,0,0,1,1.27,6.11,6.11,0,0,0,1.93.82,18.57,18.57,0,0,0,3.11.47v.37l-2-.1" transform="translate(-118.84 -242.22)" fill="#fff"/><path d="M434.62,284.05a10.56,10.56,0,0,1-1.13,5,10.37,10.37,0,0,1-3,3.54,12.83,12.83,0,0,1-4.28,2.08,18.27,18.27,0,0,1-5,.69,14.73,14.73,0,0,1-5.54-1.08,18.37,18.37,0,0,1-4.91-2.93c.14-1.3.25-2.52.32-3.64s.14-2.47.21-4h.37q.42,5,3.11,7.45a9.91,9.91,0,0,0,7,2.48,7.22,7.22,0,0,0,2.9-.58,7.43,7.43,0,0,0,2.27-1.53,6.49,6.49,0,0,0,1.45-2.19,6.83,6.83,0,0,0,.51-2.62,7.29,7.29,0,0,0-.32-2.24,6.29,6.29,0,0,0-1-1.87,12.34,12.34,0,0,0-1.8-1.85c-.74-.64-1.62-1.32-2.64-2.06q-1.85-1.32-3.77-2.61a25.16,25.16,0,0,1-3.49-2.8,13.1,13.1,0,0,1-2.53-3.4,9.75,9.75,0,0,1-1-4.49,8.82,8.82,0,0,1,3.25-6.89,12.07,12.07,0,0,1,3.75-2.06,14.74,14.74,0,0,1,4.88-.76c.63,0,1.34,0,2.11.1a21.51,21.51,0,0,1,2.35.35,15.91,15.91,0,0,1,2.3.63,9.81,9.81,0,0,1,1.95.92,36.28,36.28,0,0,0,.08,3.75q.14,1.9.24,3.75l-.48.16a11.78,11.78,0,0,0-1.29-4,8.73,8.73,0,0,0-2.14-2.56,7.63,7.63,0,0,0-2.56-1.35,9,9,0,0,0-2.51-.39,6.3,6.3,0,0,0-2.56.52,7.08,7.08,0,0,0-2.06,1.4,6.43,6.43,0,0,0-1.37,2.09,6.64,6.64,0,0,0-.5,2.53,5.18,5.18,0,0,0,.37,2,6.11,6.11,0,0,0,1.1,1.74A15.21,15.21,0,0,0,421,269c.68.56,1.48,1.16,2.39,1.79q1.84,1.38,3.82,2.7a27.78,27.78,0,0,1,3.63,2.87,14.68,14.68,0,0,1,2.71,3.43,8.67,8.67,0,0,1,1.05,4.3" transform="translate(-118.84 -242.22)" fill="#fff"/><path d="M474.47,264.37l-.42-.11c.14-2.11-.24-3.54-1.14-4.3a6.93,6.93,0,0,0-4.35-1.19l-8.61-.1-.05,22.74v5.81a24.35,24.35,0,0,0,.11,2.64,6.55,6.55,0,0,0,.42,1.87,2.82,2.82,0,0,0,1,1.27,6,6,0,0,0,1.92.82,18.55,18.55,0,0,0,3.12.47v.37l-2-.1c-.8,0-1.63-.06-2.51-.08l-2.59-.05-2.27,0-2.16,0c-.81,0-1.63,0-2.46.07s-1.63.07-2.42.08-1.47.05-2,.08v-.31c1-.14,1.86-.3,2.62-.48a6.13,6.13,0,0,0,1.9-.76,3.31,3.31,0,0,0,1.16-1.35,6.1,6.1,0,0,0,.45-2.27c0-.7.06-1.8.08-3.3s0-3.09,0-4.78V267.9c0-1,0-2.07,0-3.16s0-2.1,0-3v-3.06l-8.55.1a10.39,10.39,0,0,0-2.56.26,4,4,0,0,0-1.66.88,6.72,6.72,0,0,0-1.27,1.55c-.39.64-.84,1.41-1.37,2.33l-.37-.27c0-.1.1-.62.31-1.56s.46-2,.74-3.08.69-2.71,1.11-4.33l.32-.32a3,3,0,0,0,1.16,1.22,7.17,7.17,0,0,0,1.56.66,9.34,9.34,0,0,0,1.69.31c.58.05,1.08.08,1.5.08l10.5.26,12.09-.26c1.23,0,2.22-.1,3-.18a7.48,7.48,0,0,0,1.79-.4,2.78,2.78,0,0,0,1-.61,4.32,4.32,0,0,0,.58-.81l.42.21Z" transform="translate(-118.84 -242.22)" fill="#fff"/><path d="M150.35,283.07a10.48,10.48,0,0,1-1,4.44,11.41,11.41,0,0,1-2.83,3.74,13.67,13.67,0,0,1-4.46,2.59,17,17,0,0,1-5.83,1l-8-.37-9.45.32v-.37a24.33,24.33,0,0,0,2.67-.42,5.52,5.52,0,0,0,1.92-.82,3.67,3.67,0,0,0,1.22-1.43,5.71,5.71,0,0,0,.47-2.29c0-.74.06-1.87.06-3.38V267q0-1.46,0-2.82c0-.92,0-1.75-.08-2.48a5.91,5.91,0,0,0-.45-2.27,3.38,3.38,0,0,0-1.16-1.38,5.61,5.61,0,0,0-1.9-.79c-.76-.17-1.63-.33-2.61-.47v-.37c1.9,0,3.52.05,4.85.16s2.52.15,3.54.15c.6,0,1.26,0,2,0s1.38-.06,2-.13l2.11-.22a21,21,0,0,1,4.51.19,14.11,14.11,0,0,1,4.3,1.32,8.65,8.65,0,0,1,3.23,2.74,7.62,7.62,0,0,1,1.26,4.52,7.06,7.06,0,0,1-.79,3.45,9.62,9.62,0,0,1-1.87,2.46,11.38,11.38,0,0,1-2.14,1.58,9.34,9.34,0,0,1-1.59.74v.26a17.49,17.49,0,0,1,3.7.95,12.12,12.12,0,0,1,3.22,1.83,8.24,8.24,0,0,1,2.27,2.79,8.5,8.5,0,0,1,.84,3.88m-6.17,1.16a8.63,8.63,0,0,0-.85-3.85,9.61,9.61,0,0,0-2.27-3,10.84,10.84,0,0,0-3.27-2,10.43,10.43,0,0,0-3.8-.55h-3.51v-1.3H134a7.2,7.2,0,0,0,2.93-.44,6.12,6.12,0,0,0,2.16-1.61,7.13,7.13,0,0,0,1.32-2.43,9.88,9.88,0,0,0,.45-3,9.09,9.09,0,0,0-.6-3.43,7.22,7.22,0,0,0-1.69-2.5,7.33,7.33,0,0,0-2.48-1.56,8.47,8.47,0,0,0-3-.53,2.14,2.14,0,0,0-1.87.66,2.22,2.22,0,0,0-.45,1.24v12.85c0,.94,0,1.81,0,2.62s0,1.52,0,2.13v3.12c0,1,0,2,0,3.11s0,2.13.05,3.06,0,1.49,0,1.67a8.16,8.16,0,0,0,.32,2.05,3.18,3.18,0,0,0,.92,1.51,4.36,4.36,0,0,0,1.74.92,10.35,10.35,0,0,0,2.83.32,7.11,7.11,0,0,0,2.48-.5,6.92,6.92,0,0,0,2.42-1.59,8.19,8.19,0,0,0,1.82-2.79,10.74,10.74,0,0,0,.72-4.15" transform="translate(-118.84 -242.22)" fill="#fff"/><path d="M169.08,280.86c0,1.4,0,2.77,0,4.09s.06,2.54.06,3.66a18.6,18.6,0,0,1-1,6.26,17.13,17.13,0,0,1-2.88,5.12,17.82,17.82,0,0,1-4.43,3.83,22,22,0,0,1-5.7,2.42l-.27-.47a11.6,11.6,0,0,0,4.15-3.22,17.74,17.74,0,0,0,2.64-4.54,24.29,24.29,0,0,0,1.39-5.2,32.83,32.83,0,0,0,.43-5.2v-1.13q0-.93,0-2.25c0-.88,0-1.84,0-2.9s0-2.12,0-3.19,0-2.09,0-3v-11c0-.91,0-1.74,0-2.48a5.68,5.68,0,0,0-.48-2.27,3.43,3.43,0,0,0-1.18-1.35,5.9,5.9,0,0,0-1.9-.76c-.76-.18-1.63-.34-2.62-.48v-.31l2.06,0c.81,0,1.64.06,2.51.11s1.7.1,2.51.13,1.51.05,2.11.05,1.46,0,2.27,0l2.42-.08,2.3-.11,1.87-.1v.37a16.44,16.44,0,0,0-2.74.45,4.87,4.87,0,0,0-1.79.81,3.17,3.17,0,0,0-1,1.38,6.14,6.14,0,0,0-.4,2.11c0,.6-.06,1.32-.08,2.16s0,1.83,0,3l0,10v4.23Z" transform="translate(-118.84 -242.22)" fill="#fff"/><path d="M219.66,275.05a22.62,22.62,0,0,1-1.47,8.23,19.4,19.4,0,0,1-4.1,6.57,18.69,18.69,0,0,1-6.26,4.33,19.67,19.67,0,0,1-7.87,1.56,18.51,18.51,0,0,1-14-6,19.33,19.33,0,0,1-3.83-6.38,21.95,21.95,0,0,1,0-15,19.43,19.43,0,0,1,3.79-6.44,19,19,0,0,1,6.16-4.57,19.36,19.36,0,0,1,8.41-1.74,21,21,0,0,1,7.67,1.37,17.45,17.45,0,0,1,10.1,10,21.58,21.58,0,0,1,1.44,8.08m-18.38,18.84a8.6,8.6,0,0,0,4-1,10.11,10.11,0,0,0,3.53-3.17,18.14,18.14,0,0,0,2.53-5.5,31.54,31.54,0,0,0,0-15.41,20.14,20.14,0,0,0-2.65-6,13.6,13.6,0,0,0-4.09-4,9.81,9.81,0,0,0-5.24-1.48,8.88,8.88,0,0,0-4.5,1.19,11.23,11.23,0,0,0-3.58,3.41,17.39,17.39,0,0,0-2.36,5.45,31,31,0,0,0,.12,14.82,21.51,21.51,0,0,0,2.67,6.14,12.82,12.82,0,0,0,4.14,4.09,10.1,10.1,0,0,0,5.38,1.48" transform="translate(-118.84 -242.22)" fill="#fff"/><path d="M198.86,250.38a3.53,3.53,0,1,1-3.53-3.52,3.53,3.53,0,0,1,3.53,3.52" transform="translate(-118.84 -242.22)" fill="#fff" fill-rule="evenodd"/><path d="M208.64,250.38a3.52,3.52,0,1,1-3.52-3.52,3.53,3.53,0,0,1,3.52,3.52" transform="translate(-118.84 -242.22)" fill="#fff" fill-rule="evenodd"/><path d="M255.32,292.9A18.43,18.43,0,0,1,252,290a31.32,31.32,0,0,1-3-3.9q-1.43-2.18-2.59-4.41c-.75-1.45-1.4-2.86-2-4.27l4.07-1.73a19.78,19.78,0,0,0,5-4,8.13,8.13,0,0,0,2-5.54,7.84,7.84,0,0,0-1.37-4.78,9.37,9.37,0,0,0-3.51-2.93,16.71,16.71,0,0,0-4.75-1.48,32.41,32.41,0,0,0-5.15-.42l-6.12.16c-.88,0-2,0-3.45-.11s-3.27-.1-5.52-.1v.37c1,.14,1.85.3,2.59.47a5.7,5.7,0,0,1,1.85.77,3,3,0,0,1,1.1,1.34,6,6,0,0,1,.42,2.27c.07,1.76.12,3.42.14,5s0,3.11,0,4.68,0,3.17,0,4.82,0,3.44,0,5.34v4.77c0,1.5,0,2.6,0,3.3a5.68,5.68,0,0,1-.48,2.27,3.46,3.46,0,0,1-1.16,1.35,5.48,5.48,0,0,1-1.86.76c-.77.18-1.64.34-2.63.48v.31c.57,0,1.24-.06,2-.07l2.41-.08c.84,0,1.65-.07,2.45-.08l2.15,0,2.25,0,2.58.05c.87,0,1.71,0,2.5.08l2,.1v-.36a19.72,19.72,0,0,1-3.11-.48,5.89,5.89,0,0,1-1.93-.82,2.9,2.9,0,0,1-1-1.27,6.47,6.47,0,0,1-.42-1.87,28.78,28.78,0,0,1-.1-2.93v-8.52a15.23,15.23,0,0,0,1.53,0c.27,0,.52,0,.77,0,.57,1.38,1,2.47,1.78,4a26.26,26.26,0,0,0,3.93,6.07,17.56,17.56,0,0,0,13.49,6.23v-.47a7.89,7.89,0,0,1-3.5-1.37m-18.06-15.8v-2.16l.06-8.39v-8.08l.37-.53a16.18,16.18,0,0,1,4.37.61,11.46,11.46,0,0,1,3.82,1.88,9.53,9.53,0,0,1,2.7,3.24,10.1,10.1,0,0,1,1,4.73,6.05,6.05,0,0,1-1.08,3.43,10.17,10.17,0,0,1-2.85,2.72,15.93,15.93,0,0,1-3.95,1.82,16.15,16.15,0,0,1-4.48.73" transform="translate(-118.84 -242.22)" fill="#fff"/></svg>