<?xml version="1.0" encoding="utf-8"?><svg viewBox="0 0 41.19 37.6" xmlns="http://www.w3.org/2000/svg" xmlns:xlink="http://www.w3.org/1999/xlink"><style>:root>svg{display:none}:root>svg:target{display:block}</style><svg viewBox="0 0 26.19 9.46" id="ic_arrow_left" xmlns="http://www.w3.org/2000/svg"><path fill="currentColor" d="M1.19 4.23h20.95v1H1.19z"/><path fill="currentColor" d="M0 4.73l4.73 4.73-2.81-4.73H0zM0 4.73h1.92L4.73 0 0 4.73zM25.19 4.23h1v1h-1z"/></svg><svg viewBox="0 0 41.19 9.46" id="ic_arrow_right" xmlns="http://www.w3.org/2000/svg"><path fill="currentColor" d="M4 4.23h36v1H4z"/><path fill="currentColor" d="M36.46 0l4.73 4.73h-1.92L36.46 0zM36.46 9.46l4.73-4.73h-1.92l-2.81 4.73zM0 4.23h1v1H0z"/></svg><svg viewBox="0 0 9.46 26.19" id="ic_arrow_up" xmlns="http://www.w3.org/2000/svg"><path fill="currentColor" d="M4.23 22.13V1.18h1v20.95z"/><path fill="currentColor" d="M0 4.73L4.73 0v1.92L0 4.73zM9.46 4.73L4.73 0v1.92l4.73 2.81zM4.23 26.19v-1h1v1z"/></svg><svg viewBox="0 0 20 17" id="ic_burger" xmlns="http://www.w3.org/2000/svg"><path fill-rule="evenodd" fill="currentColor" d="M0 0h20v1H0V0zM0 8h20v1H0V8zM0 16h20v1H0v-1z"/></svg><svg viewBox="0 0 29.91 23.36" id="ic_cart" xmlns="http://www.w3.org/2000/svg"><defs><clipPath id="ea"><path fill="none" d="M0 0h29.91v23.36H0z"/></clipPath></defs><g clip-path="url(#ea)"><path d="M14.75 19.18a1.59 1.59 0 1 1-1.59 1.59 1.59 1.59 0 0 1 1.59-1.59m0-1a2.59 2.59 0 1 0 2.59 2.59 2.59 2.59 0 0 0-2.59-2.59M23 19.18a1.59 1.59 0 1 1-1.59 1.59A1.59 1.59 0 0 1 23 19.18m0-1a2.59 2.59 0 1 0 2.59 2.59A2.58 2.58 0 0 0 23 18.18" fill="currentColor"/><path fill="none" stroke="currentColor" stroke-linecap="round" stroke-linejoin="round" d="M.5.5h5.81l6.66 15.44h11.87l4.57-12.25"/><path d="M29.41 4.19H14.77a.5.5 0 0 1-.5-.5.5.5 0 0 1 .5-.5h14.64a.5.5 0 0 1 .5.5.5.5 0 0 1-.5.5" fill="currentColor"/></g></svg><svg viewBox="0 0 29.91 23.36" id="ic_cart2" xmlns="http://www.w3.org/2000/svg"><defs><clipPath id="fa"><path fill="none" d="M0 0h29.91v23.36H0z"/></clipPath></defs><g clip-path="url(#fa)" fill="currentColor"><path d="M14.75 19.18a1.59 1.59 0 1 1-1.59 1.59 1.59 1.59 0 0 1 1.59-1.59m0-1a2.59 2.59 0 1 0 2.59 2.59 2.59 2.59 0 0 0-2.59-2.59M23 19.18a1.59 1.59 0 1 1-1.59 1.59A1.59 1.59 0 0 1 23 19.18m0-1a2.59 2.59 0 1 0 2.59 2.59A2.58 2.58 0 0 0 23 18.18M29.91 3.69a.5.5 0 0 0-.5-.5H8L6.77.3a.51.51 0 0 0-.46-.3H.5a.5.5 0 0 0-.5.5.5.5 0 0 0 .5.5H6l6.53 15.14a.51.51 0 0 0 .46.3h11.85a.51.51 0 0 0 .47-.33L29.86 3.9a.54.54 0 0 0 .05-.21"/></g></svg><svg viewBox="0 0 24.75 24.75" id="ic_close" xmlns="http://www.w3.org/2000/svg"><path fill="currentColor" d="M-.01.703l.707-.707 24.041 24.041-.707.707z"/><path fill="currentColor" d="M-.01 24.037L24.03-.004l.707.707L.697 24.744z"/></svg><svg viewBox="0 0 26 26" id="ic_discount" xmlns="http://www.w3.org/2000/svg"><defs><clipPath id="ha"><path fill="none" d="M0 0h26v26H0z"/></clipPath></defs><g clip-path="url(#ha)"><path d="M26 13A13 13 0 1 1 13 0a13 13 0 0 1 13 13" fill="currentColor"/><path d="M9.86 6.34A1.86 1.86 0 1 1 8 8.2a1.87 1.87 0 0 1 1.86-1.86m0-1a2.86 2.86 0 1 0 2.87 2.86 2.86 2.86 0 0 0-2.87-2.86M16.14 15.81a1.87 1.87 0 1 1-1.87 1.86 1.87 1.87 0 0 1 1.87-1.86m0-1A2.87 2.87 0 1 0 19 17.67a2.87 2.87 0 0 0-2.86-2.86" fill="#fff"/><path fill="none" stroke="#fff" stroke-linecap="round" stroke-miterlimit="10" d="M17.25 5.99L8.76 20.01"/></g></svg><svg viewBox="0 0 13 14" id="ic_download" xmlns="http://www.w3.org/2000/svg"><path fill="currentColor" d="M6.5 10.77L1.55 5.82l-.71.7 4.95 4.95.71.71.71-.71 4.95-4.95-.71-.7-4.95 4.95z"/><path fill="currentColor" d="M6 0h1v11H6zM0 13h13v1H0z"/></svg><svg viewBox="0 0 14.14 24.77" id="ic_download2" xmlns="http://www.w3.org/2000/svg"><path fill="currentColor" d="M7.07 21.75L.71 15.38l-.71.71 6.36 6.36.71.71.71-.71 6.36-6.36-.71-.71-6.36 6.37z"/><path fill="currentColor" d="M6.57 0h1v21.77h-1zM.57 23.77h13v1h-13z"/></svg><svg viewBox="0 0 20 14.78" id="ic_email" xmlns="http://www.w3.org/2000/svg"><rect x="272.51" y="125.23" width="1" height="3.85" rx=".5" transform="rotate(90 196.605 -64.825)" fill="currentColor"/><rect x="273.59" y="114.57" width="1" height="12.14" rx=".5" transform="rotate(129.82 166.953 .018)" fill="currentColor"/><rect x="282.18" y="114.57" width="1" height="12.15" rx=".5" transform="rotate(50.18 271.916 -223.742)" fill="currentColor"/><path d="M18.07 1a.93.93 0 0 1 .93.93v10.93a.93.93 0 0 1-.93.92H1.93a.93.93 0 0 1-.93-.92V1.93A.93.93 0 0 1 1.93 1h16.14m0-1H1.93A1.92 1.92 0 0 0 0 1.93v10.93a1.92 1.92 0 0 0 1.93 1.92h16.14A1.92 1.92 0 0 0 20 12.86V1.93A1.92 1.92 0 0 0 18.07 0z" fill="currentColor"/></svg><svg viewBox="0 0 26 26" id="ic_facebook" xmlns="http://www.w3.org/2000/svg"><path d="M21.7.5H4.29A3.79 3.79 0 0 0 .5 4.29V21.7a3.8 3.8 0 0 0 3.79 3.8h5.12V15.14H5.79v-3.63h3.62v-2.9a4.71 4.71 0 0 1 5.08-5.08h2.92v3.63h-1.5c-1.61 0-2.18.33-2.18 1.45v2.9h3.68l-.72 3.63h-2.91V25.5h8a3.81 3.81 0 0 0 3.8-3.8V4.29A3.8 3.8 0 0 0 21.7.5z" fill="none" stroke="currentColor" stroke-miterlimit="10"/></svg><svg viewBox="0 0 25 23.21" id="ic_favorite" xmlns="http://www.w3.org/2000/svg"><path d="M17.19 1a6.83 6.83 0 0 1 3.1.73 7.29 7.29 0 0 1 3.47 4.62 7.4 7.4 0 0 1-1 6l-.07.11c-.71 1.17-4.59 4.77-10 9.31l-.15-.19-.15.19c-5.42-4.54-9.29-8.14-10-9.31l-.06-.11a7.39 7.39 0 0 1-1-6A7.22 7.22 0 0 1 4.8 1.73 6.79 6.79 0 0 1 7.89 1a9.9 9.9 0 0 1 4.25 1.07l.44.22.44-.22A9.94 9.94 0 0 1 17.27 1m0-1a10.86 10.86 0 0 0-4.78 1.18A10.79 10.79 0 0 0 7.8 0a7.78 7.78 0 0 0-3.55.84 8.28 8.28 0 0 0-4 5.26 8.38 8.38 0 0 0 1.24 6.85.25.25 0 0 1 0-.07l.07.11c1.14 2 8.72 8.33 11 10.26 2.32-1.93 9.9-8.31 11-10.26l.07-.11a.25.25 0 0 0 0 .07 8.41 8.41 0 0 0 1.18-6.85 8.29 8.29 0 0 0-4-5.26A7.75 7.75 0 0 0 17.26 0z" fill="currentColor"/></svg><svg viewBox="0 0 25 23.21" id="ic_favorite2" xmlns="http://www.w3.org/2000/svg"><defs><clipPath id="na"><path fill="none" d="M0 0h25v23.21H0z"/></clipPath></defs><g clip-path="url(#na)"><path d="M24.73 6.1a8.29 8.29 0 0 0-4-5.26c-3.18-1.61-6.41-.56-8.24.34C10.67.28 7.44-.77 4.26.84a8.29 8.29 0 0 0-4 5.26A8.44 8.44 0 0 0 1.48 13l-.06-.11c1 1.86 8.72 8.38 11.08 10.33 2.36-1.95 10.1-8.47 11.08-10.33l-.06.11a8.44 8.44 0 0 0 1.21-6.9" fill="currentColor"/></g></svg><svg viewBox="0 0 26 26" id="ic_instagram" xmlns="http://www.w3.org/2000/svg"><ellipse cx="13" cy="13" rx="4.08" ry="4.04" fill="none" stroke="currentColor" stroke-miterlimit="10"/><path d="M19.21.5H6.8A6.28 6.28 0 0 0 .5 6.73v12.54a6.29 6.29 0 0 0 6.3 6.23h12.41a6.28 6.28 0 0 0 6.29-6.23V6.73A6.28 6.28 0 0 0 19.21.5zm-6.2 19.66A7.16 7.16 0 1 1 20.25 13a7.2 7.2 0 0 1-7.24 7.16z" fill="none" stroke="currentColor" stroke-miterlimit="10"/><circle cx="20.48" cy="5.06" r="1.83" fill="none" stroke="currentColor" stroke-miterlimit="10"/></svg><svg viewBox="0 0 19.24 25" id="ic_location" xmlns="http://www.w3.org/2000/svg"><path d="M9.63 6.1A3.53 3.53 0 1 1 6.1 9.62 3.53 3.53 0 0 1 9.63 6.1m0-1a4.53 4.53 0 1 0 4.52 4.52A4.53 4.53 0 0 0 9.63 5.1z" fill="currentColor"/><path d="M9.63 1a8.68 8.68 0 0 1 8.62 8.63c0 3.92-2.87 6.75-5.42 9.24a23.56 23.56 0 0 0-3.2 3.58 24.21 24.21 0 0 0-3.21-3.58C3.87 16.38.98 13.55 1 9.63A8.68 8.68 0 0 1 9.63 1m0-1A9.65 9.65 0 0 0 0 9.62C0 17.06 9 20.55 9.63 25c.64-4.45 9.66-7.94 9.62-15.38A9.65 9.65 0 0 0 9.63 0z" fill="currentColor"/></svg><svg viewBox="0 0 19.24 25" id="ic_location2" xmlns="http://www.w3.org/2000/svg"><defs><clipPath id="qa"><path fill="none" d="M0 0h19.24v25H0z"/></clipPath></defs><g clip-path="url(#qa)"><path d="M9.62 0A9.65 9.65 0 0 0 0 9.62C0 17.06 9 20.55 9.62 25c.65-4.45 9.67-7.94 9.62-15.38A9.64 9.64 0 0 0 9.62 0m0 14.15a4.53 4.53 0 1 1 4.53-4.53 4.52 4.52 0 0 1-4.53 4.53" fill="currentColor"/></g></svg><svg viewBox="0 0 8 19" id="ic_notice" xmlns="http://www.w3.org/2000/svg"><defs><clipPath id="ra"><path fill="none" d="M0 0h8v19H0z"/></clipPath></defs><g clip-path="url(#ra)" fill="currentColor"><path d="M4 1a2 2 0 1 1-2 2 2 2 0 0 1 2-2m0-1a3 3 0 1 0 3 3 3 3 0 0 0-3-3M2 10h1v7H2zM5 10h1v7H5zM1 10h1v1H1zM0 10h1v1H0zM7 10h1v1H7zM6 10h1v1H6zM0 9h1v1H0zM7 9h1v1H7zM0 8h8v1H0zM1 16h1v1H1zM0 16h1v1H0zM7 16h1v1H7zM6 16h1v1H6zM0 17h1v1H0zM7 17h1v1H7zM0 18h8v1H0z"/></g></svg><svg viewBox="0 0 16.58 21" id="ic_percents" xmlns="http://www.w3.org/2000/svg"><defs><clipPath id="sa"><path fill="none" d="M0 0h16.58v21H0z"/></clipPath></defs><g clip-path="url(#sa)"><path d="M4 1a3 3 0 1 1-3 3 3 3 0 0 1 3-3m0-1a4 4 0 1 0 4 4 4 4 0 0 0-4-4M12.62 14.09a3 3 0 1 1-2.95 3 3 3 0 0 1 2.95-3m0-1a4 4 0 1 0 4 4 4 4 0 0 0-4-4" fill="currentColor"/><path fill="none" stroke="currentColor" stroke-linecap="round" stroke-linejoin="round" d="M14.15.9L2.42 20.27"/></g></svg><svg viewBox="0 0 15.7 15.7" id="ic_phone" xmlns="http://www.w3.org/2000/svg"><path d="M14.96 11.92l-3-2a.88.88 0 0 0-1.18.19l-.89 1.14a.37.37 0 0 1-.48.1l-.17-.09a14.08 14.08 0 0 1-4.73-4.73l-.1-.17a.39.39 0 0 1 .1-.49l1.14-.88a.89.89 0 0 0 .19-1.19l-2-3A.87.87 0 0 0 2.65.53l-1.27.76a1.81 1.81 0 0 0-.82 1.06C.11 4.02.45 6.89 4.69 11.13c3.37 3.37 5.87 4.27 7.6 4.27a4.64 4.64 0 0 0 1.17-.15 1.78 1.78 0 0 0 1.06-.82l.77-1.27a.89.89 0 0 0-.33-1.24z" fill="none" stroke="currentColor" stroke-miterlimit="10" stroke-width=".7"/><path d="M8.81 1.02a5.68 5.68 0 0 1 5.67 5.66.33.33 0 0 0 .33.34.34.34 0 0 0 .33-.34A6.34 6.34 0 0 0 8.81.35a.34.34 0 0 0 0 .67z" fill="currentColor"/><path d="M8.81 3.02a3.68 3.68 0 0 1 3.67 3.66.33.33 0 0 0 .33.34.34.34 0 0 0 .33-.34 4.33 4.33 0 0 0-4.33-4.33.34.34 0 0 0 0 .67z" fill="currentColor"/><path d="M8.81 5.02a1.67 1.67 0 0 1 1.67 1.66.33.33 0 0 0 .33.34.34.34 0 0 0 .33-.34 2.33 2.33 0 0 0-2.33-2.33.34.34 0 0 0 0 .67z" fill="currentColor"/></svg><svg viewBox="0 0 29.4 23.08" id="ic_roulette" xmlns="http://www.w3.org/2000/svg"><defs><clipPath id="ua"><path fill="none" d="M0 0h29.4v23.08H0z"/></clipPath></defs><g clip-path="url(#ua)" fill="currentColor"><path d="M10.37 5.08a5.29 5.29 0 1 0 5.29 5.29 5.29 5.29 0 0 0-5.29-5.29m0 9.58a4.29 4.29 0 1 1 4.29-4.29 4.29 4.29 0 0 1-4.29 4.29"/><path d="M28.4 19.74h-7.66v-2.39a3.75 3.75 0 0 0 2.75-3.6v-3.64h-2.76A10.37 10.37 0 0 0 0 10.37v5.57a4.8 4.8 0 0 0 4.8 4.8h23.6v1.84a.5.5 0 0 0 .5.5.5.5 0 0 0 .5-.5v-1.84a1 1 0 0 0-1-1m-5.91-6a2.75 2.75 0 0 1-1.75 2.56v-5.2h1.75zm-3.22 6H4.8a3.81 3.81 0 0 1-3.8-3.8v-5.57a9.37 9.37 0 0 1 18.74 0v9.38z"/></g></svg><svg viewBox="0 0 23.5 23.5" id="ic_search" xmlns="http://www.w3.org/2000/svg"><path d="M13.73 1a8.77 8.77 0 1 1-8.77 8.77A8.77 8.77 0 0 1 13.73 1m0-1a9.77 9.77 0 1 0 9.77 9.77A9.77 9.77 0 0 0 13.73 0z" fill="currentColor"/><path fill="none" stroke="currentColor" stroke-linecap="round" stroke-miterlimit="10" d="M7.17 16.33L.5 23"/></svg><svg viewBox="0 0 23.5 23.5" id="ic_search2" xmlns="http://www.w3.org/2000/svg"><defs><clipPath id="wa"><path fill="none" d="M0 0h23.5v23.5H0z"/></clipPath></defs><g clip-path="url(#wa)"><path d="M23.5 9.77A9.77 9.77 0 1 1 13.73 0a9.76 9.76 0 0 1 9.77 9.77" fill="currentColor"/><path fill="none" stroke="currentColor" stroke-linecap="round" stroke-miterlimit="10" d="M7.17 16.33L.5 23"/></g></svg><svg viewBox="0 0 24 23.97" id="ic_tooltip" xmlns="http://www.w3.org/2000/svg"><defs><clipPath id="xa"><path fill="none" d="M0 0h24v23.97H0z"/></clipPath></defs><g clip-path="url(#xa)" fill="currentColor"><path d="M12 1A11 11 0 1 1 1 12 11 11 0 0 1 12 1m0-1a12 12 0 1 0 12 12A12 12 0 0 0 12 0"/><path d="M12.08 4.93a3.64 3.64 0 0 0-2.55.91 3.14 3.14 0 0 0-1 2.42H9.6a2.24 2.24 0 0 1 .7-1.71 2.5 2.5 0 0 1 1.78-.63 2.22 2.22 0 0 1 1.71.65 2.56 2.56 0 0 1 .61 1.81 3.54 3.54 0 0 1-.14 1 3 3 0 0 1-.41.82 11.87 11.87 0 0 1-1.17 1.27 5.17 5.17 0 0 0-1.19 1.56 4.84 4.84 0 0 0-.3 1.75h1.1a3.14 3.14 0 0 1 1-2.54 8.46 8.46 0 0 0 1.72-2 4 4 0 0 0 .45-1.87 3.43 3.43 0 0 0-.92-2.51 3.39 3.39 0 0 0-2.5-.92m-.28 12.2a.72.72 0 0 0-.56.22.75.75 0 0 0-.19.53.73.73 0 0 0 .19.52.75.75 0 0 0 .56.21.76.76 0 0 0 .56-.21.7.7 0 0 0 .21-.52.74.74 0 0 0-.77-.75"/></g></svg><svg viewBox="0 0 35.07 37.6" id="ic_video_play" xmlns="http://www.w3.org/2000/svg"><defs><clipPath id="ya"><path fill="none" d="M0 0h35.07v37.6H0z"/></clipPath></defs><g clip-path="url(#ya)"><path fill="none" stroke="currentColor" stroke-miterlimit="10" d="M.5.83L34.01 18.8.5 36.76V.83z"/></g></svg><svg viewBox="0 0 35 21.38" id="ic_vkontakte" xmlns="http://www.w3.org/2000/svg"><path d="M18.65 20.87c1.14 0 1.14-1.63 1.14-2.27a2.43 2.43 0 0 1 2.26-2.26c1.13 0 3.07 1.94 4.53 3.4 1.13 1.13 1.13 1.13 2.26 1.13h3.4a2.3 2.3 0 0 0 2.26-2.27c0-.7-.78-1.9-3.4-4.52-2.26-2.27-3.42-1.1 0-5.66 2.09-2.78 3.61-5.3 3.35-6S28.4.6 27.75 1.6a42.45 42.45 0 0 0-3.4 5.66c-1.13 2.26-1.24 3.39-2.26 3.39s-1.13-2.19-1.13-3.39c0-3.75.54-6.39-1.13-6.79h-3.4a6.62 6.62 0 0 0-3.4 1.13s-1.4 1.09-1.13 1.13 2.27-.47 2.27 1.13v2.27s0 4.52-1.14 4.52-3.39-4.52-5.65-7.92C6.49 1.4 6.25 1.6 5.11 1.6s-2.26.05-3.39.05S.44 2.37.59 2.73c2.26 5.66 3.89 9.21 8.19 13.69 3.94 4.11 6.58 4.32 8.78 4.42.53.05-.04.03 1.09.03z" fill="none" stroke="currentColor" stroke-miterlimit="10"/></svg></svg>